<svg width="17" height="17" viewBox="0 0 17 17" fill="none" xmlns="http://www.w3.org/2000/svg">
<g clip-path="url(#clip0_341_498)">
<path d="M8.50009 16.8693C13.1223 16.8693 16.8693 13.1222 16.8693 8.50003C16.8693 3.87783 13.1223 0.130798 8.50009 0.130798C3.87789 0.130798 0.130859 3.87783 0.130859 8.50003C0.130859 13.1222 3.87789 16.8693 8.50009 16.8693Z" fill="#9DBAC8"/>
<path d="M6.51393 11.0577H4.96375V10.4267C4.80635 10.6242 4.43603 10.8256 4.27528 10.9161C3.99399 11.0735 3.61201 11.1759 3.25369 11.1759C2.67435 11.1759 2.15864 10.9929 1.70656 10.5944C1.1674 10.1189 0.914062 9.39189 0.914062 8.60828C0.914062 7.81127 1.19034 7.175 1.74289 6.69947C2.18158 6.32106 2.71804 6.01819 3.28734 6.01819C3.61887 6.01819 4.02773 6.04792 4.31907 6.18857C4.48651 6.26894 4.78626 6.45805 4.96375 6.64223V3.31805H6.51393V11.0577ZM4.92902 8.6133C4.92902 8.31861 4.84817 7.96579 4.64054 7.76151C4.43292 7.55389 4.05546 7.3697 3.76077 7.3697C3.43259 7.3697 3.12857 7.60842 2.91759 7.85624C2.7468 8.05716 2.66141 8.36692 2.66141 8.62478C2.66141 8.88264 2.75829 9.16944 2.92907 9.37036C3.1367 9.61817 3.36035 9.788 3.69188 9.788C3.98992 9.788 4.34441 9.6629 4.54869 9.45863C4.75631 9.25435 4.92902 8.91134 4.92902 8.6133Z" fill="white"/>
<path d="M13.7869 3.35004C13.5291 3.35004 13.3097 3.44045 13.1289 3.62129C12.9514 3.79877 12.8627 4.01644 12.8627 4.2743C12.8627 4.53216 12.9514 4.7515 13.1289 4.93234C13.3097 5.11317 13.5291 5.20359 13.7869 5.20359C14.0481 5.20359 14.2675 5.11484 14.445 4.93736C14.6258 4.75652 14.7162 4.5355 14.7162 4.2743C14.7162 4.01644 14.6258 3.79877 14.445 3.62129C14.2641 3.44045 14.0448 3.35004 13.7869 3.35004ZM9.70584 5.95104C8.74809 5.95104 8.00968 6.24958 7.49062 6.84667C7.06198 7.3413 6.84766 7.90829 6.84766 8.54777C6.84766 9.25791 7.0603 9.85675 7.4856 10.3443C8.00131 10.9379 8.72465 11.2347 9.65561 11.2347C10.5832 11.2347 11.3049 10.9379 11.8206 10.3443C12.2459 9.85675 12.4585 9.27209 12.4585 8.59021C12.4585 7.9154 12.2442 7.33423 11.8156 6.84667C11.2898 6.24958 10.5866 5.95104 9.70584 5.95104ZM12.9631 6.13237V11.0538H14.6107V6.13237H12.9631ZM9.65561 7.45071C9.957 7.45071 10.2132 7.56217 10.4242 7.78475C10.6385 8.0038 10.7456 8.27224 10.7456 8.59021C10.7456 8.91172 10.6402 9.18365 10.4292 9.40623C10.2182 9.62528 9.96035 9.735 9.65561 9.735C9.31403 9.735 9.03609 9.60065 8.82176 9.33214C8.64763 9.11662 8.56056 8.86932 8.56056 8.59021C8.56056 8.31464 8.64763 8.06908 8.82176 7.85356C9.03609 7.58505 9.31403 7.45071 9.65561 7.45071Z" fill="white"/>
</g>
<defs>
<clipPath id="clip0_341_498">
<rect width="17" height="17" fill="white"/>
</clipPath>
</defs>
</svg>
