<svg width="491" height="189" viewBox="0 0 491 189" fill="none" xmlns="http://www.w3.org/2000/svg">
<path d="M215.4 94.6C215.4 72.5 229.2 56.1 251 56.1C272.8 56.1 286.5 72.5 286.5 94.6C286.5 116.7 272.8 133 251 133C229.2 133 215.4 116.7 215.4 94.6ZM271.3 94.6C271.3 79.8 264.7 68.4 251.2 68.4C237.7 68.4 230.7 79.9 230.7 94.6C230.7 109.3 237.6 120.7 251.2 120.7C264.7 120.7 271.3 109.2 271.3 94.6Z" fill="#E86161"/>
<path d="M294.7 57.5H328.6C342.9 57.5 352.4 65.8 352.4 78.1C352.4 86.8 348.4 93.4 338.9 96V96.3C345.7 98.3 349.2 102.2 350.2 111.2C351.2 121.6 350.8 129.6 353.4 130.7V131.4H339C337.1 130.6 336.9 122.3 336.3 114.4C335.7 106.3 331.1 101.8 321.8 101.8H309.7V131.4H294.7V57.5ZM309.7 90.1H325.6C333.8 90.1 337.8 85.9 337.8 80C337.8 74 334 69.6 326 69.6H309.7V90.1Z" fill="#E86161"/>
<path d="M362 57.5H377V86.9L405.4 57.5H424L395 87L425.8 131.3H408.2L384.4 96.8L376.9 104.4V131.3H361.9V57.5H362Z" fill="#E86161"/>
<path d="M479 121.4H478.8C473.7 129.9 466.8 132.9 458 132.9C446.8 132.9 438.2 128.9 432.1 122.2C426 115.4 422.5 105.9 422.5 94.7C422.5 82.4 426.8 71.7 434.6 64.5C440.6 59 448.4 56 458.4 56C477 56 487.6 66.2 490 80.7H475.3C473.6 73.6 468.2 68.4 458.7 68.4C444.8 68.4 437.8 80 437.8 94.6C437.8 109.7 445.8 120.7 458.5 120.7C470 120.7 477.5 112.1 477.5 104V103.6H459.7V92H490.8V131.2H479.5L479 121.4Z" fill="#E86161"/>
<path d="M165.1 123.8C163.7 120.2 162 116.9 160 113.7C157.7 110.1 155.2 106.6 152.5 103.4C151 106 148.8 108.1 146.1 109.5C148.5 112.3 150.8 115.3 152.9 118.3C154.8 121 156.4 123.9 157.6 126.8C158.8 129.7 159.6 132.7 159.7 135.4C159.7 136.8 159.4 138 159 139.2C158.5 140.4 157.9 141.4 156.9 142.3C156 143.2 154.8 144 153.5 144.6C152.2 145.2 150.7 145.7 149.2 146.1C146.1 146.8 142.8 147.1 139.4 147.1C136 147.1 132.6 146.8 129.2 146.4C122.4 145.6 115.6 144 108.9 142.1C102.2 140.2 95.5 137.9 89 135.5C92.1 137.2 95.2 138.8 98.4 140.4C101.6 141.9 104.8 143.3 108.1 144.7C111.4 146.1 114.7 147.2 118.1 148.3C121.5 149.4 124.9 150.3 128.5 151.1C132 151.9 135.6 152.4 139.3 152.7C143 153 146.7 152.9 150.5 152.3C152.4 151.9 154.3 151.5 156.2 150.7C158.1 149.9 160 148.8 161.6 147.4C163.3 146 164.7 144.1 165.6 142C166.5 139.9 167 137.7 167.1 135.6C167.4 131.3 166.4 127.4 165.1 123.8Z" fill="#80869B"/>
<path d="M13.9 45.5C16.7 44.5 19.9 44 23.1 44C26.4 43.9 29.7 44.2 33 44.7C35 45 37 45.4 39.1 45.8V45.7C39.1 43 39.8 40.4 41 38.2C38.7 37.8 36.3 37.5 33.9 37.3C30.2 37 26.5 36.9 22.8 37.2C19 37.5 15.2 38.2 11.5 39.9C9.70002 40.7 7.90002 41.9 6.30002 43.3C4.70002 44.8 3.40002 46.5 2.60002 48.5C1.80002 50.5 1.40002 52.6 1.30002 54.6C1.30002 56.6 1.50002 58.6 2.00002 60.5C3.00002 64.2 4.60002 67.6 6.40002 70.7C8.30002 73.8 10.3 76.8 12.6 79.5C14.9 82.3 17.3 84.9 19.8 87.3C22.3 89.8 24.9 92.1 27.7 94.4C25.4 91.8 23.1 89.1 20.9 86.3C18.7 83.6 16.6 80.8 14.8 77.8C12.9 74.9 11.2 71.9 9.70002 68.8C8.30002 65.7 7.10002 62.5 6.60002 59.4C6.10002 56.2 6.30002 53.1 7.60002 50.7C8.90002 48.3 11.1 46.6 13.9 45.5Z" fill="#80869B"/>
<path d="M113.3 69.1C107.3 65.1 101.2 61.4 94.9 58C88.6 54.6 82.2 51.4 75.6 48.6C74.1 48 72.7 47.4 71.2 46.8C71 49.9 69.8 52.8 68 55.2C69.3 55.8 70.6 56.3 71.9 56.9C78.2 59.7 84.3 62.8 90.3 66.2C96.3 69.5 102.2 73.2 107.9 77C113.4 80.7 118.8 84.6 124 88.7C125.3 85.7 127.5 83.3 130.2 81.6C124.8 77.2 119.1 73 113.3 69.1Z" fill="#80869B"/>
<path d="M55.1 37.2C50.5 37.2 46.7 41 46.7 45.6C46.7 50.2 50.5 54 55.1 54C59.7 54 63.5 50.2 63.5 45.6C63.5 41 59.8 37.2 55.1 37.2Z" fill="#80869B"/>
<path d="M138.7 86.8C134.1 86.8 130.3 90.6 130.3 95.2C130.3 99.8 134.1 103.6 138.7 103.6C143.3 103.6 147.1 99.8 147.1 95.2C147.1 90.6 143.3 86.8 138.7 86.8Z" fill="#E86161"/>
<path d="M55.1 29.6C58.2 29.6 61.1 30.5 63.5 32C64.6 28.8 65.8 25.8 67.2 22.8C68.6 19.8 70.2 17 72.1 14.6C73.9 12.1 76.2 10.1 78.5 8.90001C79.7 8.40001 80.9 8.00001 82.1 7.90001C83.3 7.80001 84.6 8.00001 85.8 8.50001C87.1 9.00001 88.3 9.70001 89.5 10.5C90.7 11.4 91.9 12.4 92.9 13.6C95.1 15.9 97 18.7 98.7 21.5C100.4 24.4 101.9 27.4 103.3 30.5C106.1 36.7 108.3 43.3 110.2 50C112.1 56.7 113.6 63.5 115 70.4C114.9 66.9 114.6 63.4 114.2 59.9C113.8 56.4 113.3 52.9 112.8 49.5C112.2 46 111.5 42.6 110.6 39.1C109.8 35.7 108.8 32.2 107.6 28.9C106.4 25.5 105.1 22.2 103.5 18.9C101.9 15.6 100 12.5 97.6 9.50001C96.4 8.00001 95.1 6.60001 93.5 5.30001C92 4.00001 90.2 2.90001 88.2 2.00001C86.2 1.10001 84 0.600006 81.7 0.600006C79.4 0.600006 77.2 1.10001 75.2 2.00001C71.2 3.80001 68.1 6.60001 65.6 9.50001C63.1 12.5 61.1 15.7 59.4 19C57.7 22.3 56.2 25.7 55 29.1C55.2 29.2 55.1 29.4 55.1 29.6Z" fill="#BFC2CD"/>
<path d="M108.5 156.1C107.3 159.4 105.9 162.5 104.3 165.6C102.7 168.7 101 171.6 99 174.3C97 177 94.7 179.5 92.2 181.2C89.6 182.9 86.8 183.8 84.1 183.4C83.9 183.4 83.8 183.4 83.6 183.3L83.1 183.2L82.6 183.1C82.4 183 82.3 183 82.1 182.9C81.8 182.8 81.4 182.7 81.1 182.5L80.2 182C79 181.3 77.8 180.4 76.7 179.3C74.5 177.2 72.6 174.5 70.9 171.7C69.2 168.9 67.8 165.8 66.6 162.8C66 161.3 65.4 159.8 64.9 158.2C62.7 159.5 60.2 160.3 57.4 160.4C58.1 162.2 58.9 164 59.7 165.8C61.2 169.1 63 172.3 65 175.4C67.1 178.5 69.4 181.5 72.4 184C73.9 185.3 75.6 186.4 77.4 187.3C79.2 188.2 81.3 188.8 83.5 188.9C85.6 189.1 87.8 188.7 89.7 188C91.7 187.3 93.4 186.2 94.9 185C97.9 182.5 100.2 179.5 102 176.4C103.9 173.3 105.4 170 106.6 166.7C107.8 163.4 108.9 160 109.7 156.6C110.5 153.2 111.2 149.7 111.8 146.3C110.8 149.5 109.7 152.8 108.5 156.1Z" fill="#BFC2CD"/>
<path d="M49.1 130.2C51.3 129 53.9 128.3 56.6 128.3C57 128.3 57.4 128.3 57.8 128.4C57.5 126.7 57.3 125 57.1 123.2C56.3 116.4 55.7 109.6 55.5 102.7C55.2 95.9 55.2 89 55.5 82.2C55.8 75.4 56.3 68.5 57.2 61.8C57.2 61.7 57.2 61.7 57.2 61.6C56.5 61.7 55.9 61.7 55.2 61.7C52.6 61.7 50.1 61.1 47.9 59.9C47.9 60.1 47.8 60.3 47.8 60.5C46.8 67.6 46.2 74.7 46 81.8C45.5 96 46.2 110.3 48.3 124.4C48.4 126.3 48.8 128.3 49.1 130.2Z" fill="#BFC2CD"/>
<path d="M166.5 56.3C166.5 55.8 166.5 55.3 166.5 54.8L166.3 53.2C166.3 52.7 166.1 52.2 166 51.7C165.9 51.2 165.8 50.7 165.6 50.2C165.4 49.7 165.2 49.2 165 48.7L164.2 47.3C163.1 45.4 161.6 43.9 159.9 42.7C158.2 41.5 156.4 40.7 154.6 40.1C150.9 38.9 147.2 38.6 143.6 38.6C140 38.6 136.4 39 132.9 39.7C129.4 40.3 126 41.2 122.6 42.2C119.2 43.2 115.9 44.4 112.6 45.7C116 44.9 119.4 44.2 122.9 43.6C126.3 43 129.8 42.6 133.2 42.3C136.6 42.1 140.1 42 143.4 42.3C146.7 42.6 150.1 43.2 152.9 44.5C155.8 45.7 158.2 47.6 159.3 50L159.7 50.9L160 51.9C160.1 52.2 160.2 52.6 160.2 52.9C160.2 53.2 160.3 53.6 160.3 53.9V55C160.3 55.4 160.3 55.7 160.2 56.1V56.6C160.2 56.8 160.1 57 160.1 57.2L159.9 58.3C159.3 61.3 158 64.3 156.5 67.1C154.9 70 153.1 72.7 151.1 75.4C149.6 77.4 148 79.3 146.4 81.2C148.7 82.5 150.7 84.4 152.2 86.7C154 84.5 155.7 82.2 157.3 79.9C159.4 76.9 161.2 73.7 162.8 70.3C164.4 66.9 165.7 63.3 166.2 59.4L166.3 57.9C166.3 57.7 166.3 57.4 166.4 57.2L166.5 56.3Z" fill="#E86161"/>
<path d="M40.6 144.3C40.6 144.2 40.6 144 40.6 143.9C40.3 144 40 144 39.7 144.1C36.4 144.8 33.1 145.3 29.8 145.6C26.5 145.9 23.3 145.9 20.2 145.6C17.1 145.3 14.1 144.5 11.9 143.1C9.60001 141.7 8.10001 139.7 7.50001 137.2C6.90001 134.6 7.2 131.5 8.1 128.5C8.9 125.4 10.3 122.4 11.9 119.5C13.5 116.5 15.4 113.7 17.3 110.9C21.3 105.3 25.9 100.1 30.7 95.1C33.1 92.6 35.6 90.2 38.1 87.8C40.6 85.4 43.2 83.1 45.9 80.7C42.9 82.6 40.1 84.6 37.2 86.6C34.4 88.7 31.6 90.9 28.9 93.1C23.5 97.6 18.4 102.5 13.7 108C11.4 110.7 9.20001 113.6 7.20001 116.6C6.20001 118.1 5.30001 119.7 4.40001 121.4C3.50001 123 2.80001 124.8 2.10001 126.6C1.50001 128.4 0.900006 130.3 0.700006 132.3C0.400006 134.3 0.400006 136.4 0.700006 138.6C1.10001 140.7 1.9 142.9 3.1 144.8C3.7 145.8 4.40001 146.6 5.20001 147.4C6.00001 148.2 6.9 148.9 7.8 149.5C9.6 150.7 11.5 151.6 13.4 152.3C15.3 153 17.2 153.4 19.2 153.7C21.1 154 23 154.1 24.9 154.2C26.8 154.3 28.7 154.2 30.5 154.1C34.2 153.9 37.8 153.4 41.4 152.8C41.9 152.7 42.3 152.6 42.8 152.5C41.4 150.1 40.6 147.3 40.6 144.3Z" fill="#E86161"/>
<path d="M124.1 101.9C123.4 102.5 122.6 103 121.9 103.6C116.5 107.7 110.8 111.7 105 115.3C99.2 119 93.3 122.5 87.2 125.7C81.3 128.8 75.3 131.8 69.2 134.4C71.1 136.9 72.4 139.9 72.6 143.2C79.1 140.5 85.5 137.4 91.7 134.2C104.3 127.5 116.3 119.7 127.4 110.8C128.3 110.1 129.1 109.4 129.9 108.7C127.5 107.1 125.4 104.7 124.1 101.9Z" fill="#E86161"/>
<path d="M65 144.3C65 139.7 61.2 135.9 56.6 135.9C52 135.9 48.2 139.7 48.2 144.3C48.2 148.9 52 152.7 56.6 152.7C61.3 152.7 65 149 65 144.3Z" fill="#80869B"/>
</svg>
