<svg width="165" height="187" viewBox="0 0 165 187" fill="none" xmlns="http://www.w3.org/2000/svg">
<path d="M162.425 121.7C161.125 118.1 159.325 114.8 157.425 111.7C155.225 108.1 152.725 104.7 150.025 101.5C148.525 104 146.325 106.1 143.725 107.5C146.125 110.3 148.425 113.2 150.425 116.2C152.225 118.9 153.825 121.7 155.125 124.6C156.325 127.5 157.125 130.4 157.125 133.1C157.125 134.4 156.825 135.7 156.425 136.9C155.925 138 155.325 139.1 154.325 140C153.425 140.9 152.225 141.7 150.925 142.3C149.625 142.9 148.125 143.4 146.625 143.8C143.625 144.5 140.325 144.8 137.025 144.8C133.725 144.8 130.325 144.5 127.025 144.1C120.325 143.3 113.625 141.7 106.925 139.9C100.325 138 93.7246 135.8 87.2246 133.3C90.2246 135 93.3246 136.6 96.5246 138.1C99.7246 139.6 102.825 141 106.125 142.3C109.325 143.6 112.725 144.8 116.025 145.9C119.425 147 122.825 147.9 126.225 148.7C129.725 149.5 133.225 150 136.825 150.3C140.425 150.6 144.125 150.5 147.925 149.9C149.825 149.6 151.725 149.1 153.625 148.3C155.525 147.5 157.325 146.5 159.025 145C160.625 143.6 162.025 141.7 163.025 139.7C163.925 137.7 164.425 135.5 164.525 133.4C164.725 129.1 163.725 125.2 162.425 121.7Z" fill="white"/>
<path d="M13.0254 44.3C15.8254 43.3 18.9254 42.9 22.1254 42.8C25.3254 42.7 28.6254 43 31.9254 43.5C33.9254 43.8 35.9254 44.2 37.9254 44.6V44.5C37.9254 41.8 38.6254 39.3 39.8254 37.1C37.5254 36.7 35.2254 36.4 32.8254 36.2C29.2254 35.9 25.5254 35.8 21.8254 36.1C18.1254 36.4 14.3254 37.1 10.6254 38.8C8.82539 39.6 7.02539 40.7 5.52539 42.2C4.02539 43.6 2.62539 45.4 1.82539 47.4C1.02539 49.4 0.625391 51.4 0.525391 53.4C0.525391 55.4 0.72539 57.3 1.22539 59.2C2.12539 62.9 3.72539 66.2 5.52539 69.3C7.32539 72.4 9.42539 75.3 11.6254 78C13.8254 80.7 16.2254 83.3 18.7254 85.8C21.2254 88.2 23.8254 90.6 26.5254 92.8C24.2254 90.2 21.9254 87.6 19.8254 84.8C17.7254 82.1 15.6254 79.3 13.7254 76.4C11.8254 73.5 10.1254 70.6 8.72539 67.5C7.32539 64.5 6.22539 61.3 5.72539 58.2C5.22539 55.1 5.42539 52 6.72539 49.6C8.02539 47.1 10.2254 45.4 13.0254 44.3Z" fill="white"/>
<path d="M111.126 67.6C105.226 63.7 99.2258 60 93.0258 56.6C86.8258 53.3 80.4258 50.2 73.9258 47.4C72.5258 46.8 71.0258 46.2 69.5258 45.6C69.3258 48.7 68.1258 51.5 66.4258 53.9C67.7258 54.5 69.0258 55 70.3258 55.6C76.5258 58.4 82.6258 61.5 88.5258 64.8C94.4258 68.1 100.326 71.7 105.926 75.4C111.426 79 116.726 82.9 121.826 86.9C123.126 84 125.226 81.5 127.926 79.8C122.526 75.6 116.926 71.5 111.126 67.6Z" fill="white"/>
<path d="M53.7258 36.2C49.1258 36.2 45.4258 39.9 45.4258 44.5C45.4258 49.1 49.1258 52.8 53.7258 52.8C58.3258 52.8 62.0258 49.1 62.0258 44.5C62.0258 39.9 58.3258 36.2 53.7258 36.2Z" fill="white"/>
<path d="M136.325 85.2C131.725 85.2 128.025 88.9 128.025 93.5C128.025 98.1 131.725 101.8 136.325 101.8C140.925 101.8 144.625 98.1 144.625 93.5C144.625 88.9 140.925 85.2 136.325 85.2Z" fill="white"/>
<path d="M53.7246 28.6C56.7246 28.6 59.6246 29.5 62.0246 31C63.0246 27.9 64.2246 24.8 65.6246 21.9C67.0246 19 68.6246 16.2 70.4246 13.8C72.2246 11.3 74.4246 9.4 76.7246 8.2C77.9246 7.7 79.0246 7.3 80.3246 7.2C81.5246 7.1 82.8246 7.3 84.0246 7.8C85.2246 8.2 86.5246 8.9 87.7246 9.8C88.9246 10.7 90.0246 11.7 91.1246 12.9C93.3246 15.2 95.1246 17.9 96.8246 20.7C98.5246 23.5 100.025 26.5 101.425 29.6C104.225 35.8 106.325 42.3 108.225 48.8C110.125 55.4 111.625 62.1 112.925 68.9C112.825 65.4 112.525 62 112.125 58.5C111.725 55.1 111.225 51.6 110.725 48.2C110.125 44.8 109.425 41.4 108.625 38C107.825 34.6 106.825 31.2 105.725 27.9C104.525 24.6 103.225 21.3 101.625 18C100.025 14.8 98.1246 11.6 95.8246 8.7C94.6246 7.2 93.3246 5.8 91.8246 4.6C90.3246 3.3 88.6246 2.2 86.6246 1.4C84.7246 0.6 82.5246 0 80.2246 0C78.0246 0 75.8246 0.5 73.7246 1.3C69.7246 3.1 66.7246 5.8 64.2246 8.7C61.7246 11.7 59.8246 14.8 58.1246 18.1C56.4246 21.4 54.9246 24.7 53.7246 28.1C53.8246 28.3 53.7246 28.4 53.7246 28.6Z" fill="white"/>
<path d="M106.424 153.6C105.224 156.8 103.824 160 102.324 163C100.724 166 99.1242 169 97.1242 171.6C95.1242 174.3 92.9242 176.7 90.3242 178.4C87.8242 180.1 85.0242 181 82.3242 180.5C82.1242 180.5 82.0242 180.5 81.8242 180.4L81.3242 180.3L80.8242 180.2C80.6242 180.1 80.5242 180.1 80.3242 180C80.0242 179.9 79.7242 179.8 79.3242 179.6L78.4242 179.1C77.2242 178.4 76.0242 177.5 74.9242 176.4C72.7242 174.3 70.8242 171.7 69.2242 168.9C67.6242 166.1 66.2242 163.1 64.9242 160.1C64.3242 158.6 63.7242 157.1 63.2242 155.6C61.0242 156.9 58.5242 157.7 55.8242 157.8C56.5242 159.6 57.3242 161.4 58.1242 163.1C59.6242 166.4 61.3242 169.5 63.4242 172.6C65.4242 175.6 67.8242 178.6 70.8242 181.1C72.3242 182.4 73.9242 183.5 75.8242 184.4C77.6242 185.3 79.7242 185.8 81.8242 186C83.9242 186.2 86.0242 185.8 88.0242 185.1C89.9242 184.4 91.7242 183.4 93.1242 182.1C96.1242 179.7 98.3242 176.7 100.124 173.6C101.924 170.5 103.424 167.3 104.624 164C105.824 160.7 106.824 157.4 107.724 154C108.524 150.6 109.224 147.2 109.724 143.8C108.724 147.1 107.724 150.4 106.424 153.6Z" fill="white"/>
<path d="M47.8241 128C50.0241 126.8 52.6241 126.1 55.2241 126.1C55.6241 126.1 56.0241 126.1 56.4241 126.1C56.2241 124.4 55.9241 122.7 55.7241 121C54.9241 114.3 54.3241 107.5 54.1241 100.8C53.8241 94 53.8241 87.3 54.1241 80.5C54.3241 73.7 54.9241 67 55.7241 60.3C55.7241 60.2 55.7241 60.2 55.7241 60.1C55.1241 60.2 54.4241 60.2 53.7241 60.2C51.1241 60.2 48.6241 59.6 46.5241 58.4C46.5241 58.6 46.4241 58.8 46.4241 59C45.5241 66 44.9241 73 44.6241 80.1C44.1241 94.3 44.8241 108.4 46.8241 122.3C47.1241 124.2 47.4241 126.1 47.8241 128Z" fill="white"/>
<path d="M163.825 55C163.825 54.5 163.825 54 163.825 53.5L163.625 52C163.625 51.5 163.425 51 163.325 50.5C163.225 50 163.125 49.5 162.925 49C162.725 48.5 162.525 48 162.325 47.5L161.525 46.1C160.425 44.3 158.925 42.7 157.325 41.6C155.625 40.4 153.825 39.6 152.025 39C148.425 37.8 144.725 37.5 141.125 37.6C137.525 37.6 134.025 38 130.525 38.7C127.025 39.3 123.625 40.2 120.325 41.2C117.025 42.2 113.725 43.3 110.525 44.6C113.925 43.8 117.325 43.1 120.725 42.6C124.125 42 127.525 41.6 130.925 41.3C134.325 41.1 137.725 41 141.025 41.3C144.325 41.6 147.625 42.2 150.425 43.4C153.225 44.6 155.625 46.5 156.825 48.9L157.225 49.8L157.525 50.8C157.625 51.1 157.725 51.5 157.725 51.8C157.725 52.1 157.825 52.5 157.825 52.8V53.9C157.825 54.3 157.825 54.6 157.725 55V55.5C157.725 55.7 157.625 55.9 157.625 56L157.425 57.1C156.825 60 155.525 63 154.025 65.8C152.525 68.6 150.625 71.4 148.625 74C147.125 76 145.625 77.8 143.925 79.7C146.225 81 148.225 82.9 149.625 85.1C151.425 82.9 153.025 80.7 154.625 78.4C156.625 75.4 158.525 72.3 160.125 68.9C161.725 65.6 163.025 62 163.525 58.1L163.625 56.6C163.625 56.4 163.625 56.1 163.725 55.9L163.825 55Z" fill="white"/>
<path d="M39.325 142C39.325 141.9 39.325 141.7 39.325 141.6C39.025 141.7 38.725 141.7 38.525 141.8C35.325 142.5 32.025 143 28.825 143.3C25.625 143.6 22.325 143.6 19.325 143.3C16.225 143 13.325 142.2 11.125 140.8C8.825 139.4 7.425 137.5 6.725 134.9C6.125 132.3 6.425 129.3 7.325 126.3C8.125 123.3 9.525 120.3 11.125 117.4C12.725 114.5 14.525 111.7 16.525 108.9C20.425 103.4 24.925 98.2 29.725 93.3C32.125 90.8 34.525 88.4 37.125 86.1C39.625 83.7 42.225 81.4 44.825 79.1C41.925 81 39.025 82.9 36.225 85C33.425 87.1 30.725 89.2 28.025 91.4C22.625 95.9 17.625 100.7 12.925 106.1C10.625 108.8 8.425 111.6 6.525 114.6C5.525 116.1 4.625 117.7 3.825 119.3C3.025 120.9 2.225 122.6 1.625 124.4C1.025 126.2 0.425 128.1 0.225 130C-0.075 132 -0.075 134.1 0.225 136.2C0.625 138.3 1.425 140.5 2.625 142.3C3.225 143.2 3.925 144.1 4.725 144.9C5.525 145.7 6.325 146.4 7.225 147C9.025 148.2 10.925 149.1 12.825 149.7C14.725 150.3 16.625 150.8 18.525 151.1C20.425 151.4 22.325 151.5 24.125 151.6C26.025 151.7 27.825 151.6 29.625 151.5C33.325 151.3 36.925 150.9 40.425 150.2C40.925 150.1 41.325 150 41.825 149.9C40.125 147.7 39.325 144.9 39.325 142Z" fill="white"/>
<path d="M121.925 100.1C121.225 100.7 120.425 101.2 119.725 101.8C114.325 105.9 108.825 109.8 103.025 113.4C97.325 117.1 91.425 120.5 85.425 123.7C79.625 126.8 73.625 129.7 67.625 132.3C69.525 134.7 70.725 137.7 71.025 141C77.525 138.3 83.725 135.3 89.925 132.1C102.325 125.4 114.225 117.8 125.225 109C126.025 108.3 126.925 107.6 127.725 107C125.225 105.2 123.125 102.8 121.925 100.1Z" fill="white"/>
<path d="M63.5258 142C63.5258 137.4 59.8258 133.7 55.2258 133.7C50.6258 133.7 46.9258 137.4 46.9258 142C46.9258 146.6 50.6258 150.3 55.2258 150.3C59.8258 150.3 63.5258 146.6 63.5258 142Z" fill="white"/>
</svg>
